<mxfile host="app.diagrams.net" modified="2024-03-18T14:08:18.546Z" agent="Mozilla/5.0 (Windows NT 10.0; Win64; x64) AppleWebKit/537.36 (KHTML, like Gecko) Chrome/122.0.0.0 Safari/537.36" version="24.0.7" etag="rCa2FOZIfUNP2R-9SXJe" type="github">
  <diagram name="Page-1" id="fZQzP1e7L4qmpXXtY60z">
    <mxGraphModel>
      <root>
        <mxCell id="0" />
        <mxCell id="1" parent="0" />
      </root>
    </mxGraphModel>
  </diagram>
</mxfile>
